<svg xmlns="http://www.w3.org/2000/svg" width="256" height="256" viewBox="0 0 100 100"><rect width="100" height="100" rx="50" fill="#000000"></rect><path fill="#9a0000" d="M49.33 24.89L49.33 24.89Q43.92 24.89 41.05 27.45Q38.16 30.02 38.16 33.80L38.16 33.80Q38.16 37.13 39.42 39.38Q40.69 41.63 42.75 43.16Q44.83 44.69 47.48 45.77Q50.13 46.85 53.02 47.84L53.02 47.84Q56.08 48.92 59.22 50.41Q62.38 51.89 64.89 54.09Q67.41 56.30 68.99 59.41Q70.56 62.51 70.56 66.92L70.56 66.92Q70.56 71.33 68.77 74.39Q66.97 77.45 64.04 79.38Q61.11 81.32 57.33 82.17Q53.55 83.03 49.59 83.03L49.59 83.03Q43.75 83.03 38.48 81.09Q33.22 79.16 29.43 76.37L29.43 76.37L32.41 72.05Q34.12 73.13 36.09 74.16Q38.08 75.20 40.37 76.10Q42.66 77 45.19 77.54Q47.70 78.08 50.59 78.08L50.59 78.08Q53.47 78.08 56.08 77.49Q58.69 76.91 60.66 75.60Q62.64 74.30 63.81 72.19Q64.98 70.07 64.98 66.92L64.98 66.92Q64.98 63.68 63.72 61.38Q62.47 59.09 60.39 57.42Q58.33 55.76 55.63 54.55Q52.92 53.33 50.05 52.25L50.05 52.25Q46.98 51.08 43.88 49.77Q40.77 48.47 38.25 46.45Q35.73 44.42 34.16 41.40Q32.59 38.39 32.59 33.80L32.59 33.80Q32.59 31.01 33.80 28.49Q35.02 25.97 37.31 24.08Q39.61 22.19 42.89 21.06Q46.17 19.94 50.22 19.94L50.22 19.94Q52.92 19.94 54.99 20.03Q57.06 20.12 58.33 20.12L58.33 20.12Q61.39 20.12 63.14 19.45Q64.89 18.77 66.78 16.97L66.78 16.97L69.75 20.03Q68.50 21.74 67.23 22.73Q65.97 23.72 64.58 24.26Q63.19 24.80 61.66 24.93Q60.13 25.07 58.33 25.07L58.33 25.07Q56.80 25.07 54.36 24.98Q51.94 24.89 49.33 24.89Z"></path></svg>